# xmcd
#
# Track frame offsets:
#	150
#	13164
#	30713
#	54498
#	69637
#	81094
#	93976
#	118212
#	135283
#	149373
#	165871
#	192371
#	205704
#	221333
#	236523
#	250449
#	266708
#	285386
#	306051
#	328325
#
# Disc length: 4646 seconds
#
# Revision: 3
# Processed by: cddbd v1.5.2PL0 Copyright (c) Steve Scherf et al.
# Submitted via: EasyCDDAExtractor 2010.6.0.0
#
DISCID=20122414
DTITLE=Various Artist - Seventies Top 100 Vol. 1
DYEAR=2007
DGENRE=Pop
TTITLE0=J.J. Cale - Cocaine
TTITLE1=Steve Harley and Cockney Rebel - Make Me Smile (Come Up And See Me)
TTITLE2=Cats - Where Have I Been Wrong
TTITLE3=Earth and Fire - Memories
TTITLE4=Cuby and The Blizzards - Appleknockers Flophouse
TTITLE5=Slade - Look Wot You Dun
TTITLE6=10cc - I'm Mandy Fly Me
TTITLE7=Rick Nelson - Garden Party
TTITLE8=Sandy Coast - True Love That's A Wonder
TTITLE9=T. Rex - 20th Century Boy
TTITLE10=Steely Dan - Do It Again
TTITLE11=Mud - Dynamite
TTITLE12=Focus - Sylvia
TTITLE13=Sweet - Fox On The Run
TTITLE14=Diesel - Goin' Back To China
TTITLE15=Joe Jackson - Is She Really Going Out With Him?
TTITLE16=Player - Baby Come Back
TTITLE17=Elvin Bishop - Fooled Around And Fell In Love
TTITLE18=Styx - Sing For The Day
TTITLE19=Emerson, Lake and Palmer - Peter Gunn Theme (Live)
EXTD=
EXTT0=
EXTT1=
EXTT2=
EXTT3=
EXTT4=
EXTT5=
EXTT6=
EXTT7=
EXTT8=
EXTT9=
EXTT10=
EXTT11=
EXTT12=
EXTT13=
EXTT14=
EXTT15=
EXTT16=
EXTT17=
EXTT18=
EXTT19=
PLAYORDER=
